# xmcd
#
# Track frame offsets:
#	187
#	15195
#	27195
#	40695
#	53687
#	66402
#	77492
#	96922
#	108170
#	123655
#
# Disc length: 1890 seconds
#
# Revision: 0
# Processed by: cddbd v1.5.1PL2 Copyright (c) Steve Scherf et al.
# Submitted via: audiograbber 1.83.01
#
DISCID=7107600a
DTITLE=JVC - JVC059
DYEAR=1900
DGENRE=Karaoke Counrtry
TTITLE0=Campbell, Glen - Wichita Lineman
TTITLE1=Cargill, Henson - Skip A Rope
TTITLE2=Wynette, Tammy - D I V O R C E
TTITLE3=Nelson, Willie - Funny How Time Slips Away
TTITLE4=Ives, Burl - Funny Way Of Laughing
TTITLE5=Price, Ray - Crazy Arms
TTITLE6=Goldsboro, Bobby - Honey 
TTITLE7=Husky, Ferlin - A Fallen Star
TTITLE8=Clark, Roy - Yesterday When I Was Young
TTITLE9=South, Joe - Walk A Mile In My Shoes
EXTD=
EXTT0=
EXTT1=
EXTT2=
EXTT3=
EXTT4=
EXTT5=
EXTT6=
EXTT7=
EXTT8=
EXTT9=
PLAYORDER=
